<svg width="169" height="55" viewBox="0 0 169 55" fill="none" xmlns="http://www.w3.org/2000/svg">
<g clip-path="url(#clip0_181_61)">
<path d="M44 -0.100098H0V43.8999H44V-0.100098Z" fill="#010101" stroke="white" stroke-width="0.07" stroke-miterlimit="10"/>
<path d="M48.5 12.3998L56.2 32.0998H61.3L69 12.3998L63.9 12.2998L59 26.6998L53.8 12.2998L48.5 12.3998Z" fill="#010101" stroke="white" stroke-width="0.07" stroke-miterlimit="10"/>
<path d="M76.2 12.2998H71.1V32.1998H76.2V12.2998Z" fill="#010101" stroke="white" stroke-width="0.07" stroke-miterlimit="10"/>
<path d="M78.4 28.9999L80.4 25.0999C81.1 25.7999 82 26.2999 82.8 26.7999C84.4 27.5999 86.1 27.9999 87.8 28.0999C88.2 28.0999 88.6 28.0999 88.9 27.8999C89.3 27.7999 89.6 27.4999 89.8 27.1999C90 26.7999 90.1 26.2999 89.9 25.8999C89.8 25.5999 89.6 25.3999 89.4 25.1999C89.3 25.0999 89.2 25.0999 89.1 24.9999C88.4 24.6999 85.1 23.7999 83.5 23.1999C82.6 22.8999 81.7 22.3999 81 21.7999C80.3 21.1999 79.8 20.3999 79.5 19.4999C79.2 18.2999 79.3 16.9999 79.8 15.8999C80.3 14.8999 81 14.0999 81.9 13.3999C86.5 9.99985 93.3 13.2999 93.6 13.4999L95 14.1999L93.1 18.0999L92 17.3999L90.9 16.8999L89.9 16.5999C89.5 16.4999 89.2 16.3999 89 16.2999C88.6 16.1999 88.3 16.0999 88.2 16.0999L87.7 15.9999C87.4 15.9999 87.2 15.9999 87.1 15.9999C86.8 15.9999 86.5 15.9999 86.2 15.9999C85.9 15.9999 85.6 16.1999 85.3 16.3999C85.1 16.5999 85 16.7999 84.9 16.9999C84.7 17.4999 84.8 17.9999 85.2 18.2999C85.4 18.4999 85.6 18.6999 85.8 18.7999C86.1 18.9999 86.4 19.0999 86.7 19.2999C87 19.3999 87.3 19.4999 87.6 19.5999C88.2 19.7999 88.7 19.8999 89.3 20.0999C89.9 20.2999 90.5 20.4999 91.2 20.7999C91.7 20.9999 92.1 21.1999 92.6 21.3999C93.1 21.6999 93.6 22.0999 94 22.4999C94.7 23.2999 95.1 24.2999 95.2 25.2999C95.3 26.4999 95.1 27.6999 94.5 28.6999C93.9 29.6999 93 30.4999 92 30.9999C90.9 31.5999 89.7 31.8999 88.4 31.9999C86.5 32.1999 84.6 31.8999 82.7 31.2999C81.3 30.8999 79.8 29.9999 78.4 28.9999Z" fill="#010101" stroke="white" stroke-width="0.07" stroke-miterlimit="10"/>
<path d="M98.3 12.2998H103.3V32.1998H98.3V12.2998Z" fill="#010101" stroke="white" stroke-width="0.07" stroke-miterlimit="10"/>
<path d="M116.9 12.2998C122.8 12.2998 127.6 16.7998 127.6 22.2998C127.6 27.7998 122.8 32.2998 116.9 32.2998C111 32.2998 106.2 27.8998 106.2 22.3998C106.2 16.8998 110.9 12.2998 116.9 12.2998ZM122.2 22.1998C122.4 19.1998 120.2 16.5998 117.2 16.2998C113.8 15.8998 111.2 18.7998 111.1 22.0998C111 25.3998 114 28.2998 117.2 27.8998C120.1 27.5998 122.3 25.0998 122.2 22.1998Z" fill="#010101"/>
<path d="M116.9 32.1999C122.809 32.1999 127.6 27.7675 127.6 22.2999C127.6 16.8323 122.809 12.3999 116.9 12.3999C110.991 12.3999 106.2 16.8323 106.2 22.2999C106.2 27.7675 110.991 32.1999 116.9 32.1999Z" stroke="white" stroke-width="0.07" stroke-miterlimit="10"/>
<path d="M122.2 22.1998C122.3 25.0998 120.1 27.5998 117.2 27.9998C114.1 28.3998 111.1 25.4998 111.1 22.1998C111.1 18.8998 113.7 15.9998 117.2 16.3998C120.2 16.5998 122.4 19.1998 122.2 22.1998Z" stroke="#F9F9FA" stroke-width="0.07" stroke-miterlimit="10"/>
<path d="M148.3 12.2998V32.0998H143.9L134.7 19.8998V32.0998H130V12.2998H134.5L143.6 24.3998V12.2998H148.3Z" fill="#010101"/>
<path d="M130 12.2998V32.0998H134.7V19.8998L143.9 32.0998H148.3V12.2998H143.6V24.3998L134.5 12.2998H130Z" stroke="white" stroke-width="0.07" stroke-miterlimit="10"/>
<path d="M147.8 28C148 28 148.3 28.1 148.5 28.1L149.7 28.2C150.6 29.1 150.5 30.2 150.6 31.4C151.3 31.4 151.9 31.3 152.6 31.2C153.3 31.1 153.9 31 154.6 31C155.3 31 155.9 30.9 156.6 30.8C157 30.2 156.8 29.6 156.9 29C158 28.6 158.4 28.7 158.9 29.3L159.1 30.7C159.6 30.7 160.1 30.7 160.5 30.7C161.2 30.7 161.8 30.8 162.5 30.9C163.2 31 163.9 31.1 164.5 31.2C165.3 31.3 166.2 31.5 166.9 31.9C167.4 32.2 167.8 32.4 168.3 32.8C168.5 33 168.6 33.1 168.7 33.3C168.3 33.3 168.1 33.3 167.8 33.2C167 33.1 166.2 33 165.4 32.8C164.5 32.6 163.6 32.5 162.7 32.5C162.4 32.5 162.1 32.4 161.8 32.4C161.4 32.3 160.9 32.3 160.5 32.3C160.1 32.3 159.6 32.4 159.2 32.5C159.2 32.6 159.2 32.8 159.2 32.9C159.2 34.3 159 35.7 158.7 37.1C158.6 37.9 158.5 38.7 158.3 39.5C158.2 40.3 157.9 41.2 157.3 41.8C157.1 42 156.9 42.2 156.8 42.5C156.5 42.5 156.3 42.4 156.2 42.1C156 41.7 155.8 41.3 155.7 40.9C155.6 40.3 155.6 39.6 155.6 39C155.6 38.8 155.6 38.6 155.6 38.4C155.7 37 155.8 35.5 156.1 34.1C156.2 33.7 156.2 33.3 156.3 32.9C156 32.9 155.7 32.9 155.4 33C154.5 33.2 153.5 33.4 152.6 33.7C151.6 33.9 150.7 34.2 149.9 34.8C149.7 35.6 149.5 36.5 149.2 37.3C148.9 38.1 148.7 39.1 148.4 40C147.9 41.1 147.2 42.2 146.3 43L146 43.2C145.8 44.7 146 46.2 146.4 47.6C146.6 48.1 146.8 48.6 147.2 49C147.5 49.4 148 49.7 148.5 49.6C149.2 49 149.8 48.2 150.2 47.4C151.1 45.8 151.9 44.1 152.6 42.4C153 41.5 153.5 40.6 154 39.8C154.1 39.7 154.2 39.6 154.3 39.5C154.4 39.9 154.4 40.3 154.4 40.8C154.4 41.3 154.2 41.8 154.2 42.4C153.9 44.2 153.3 45.9 152.4 47.5C152.1 48 151.8 48.5 151.4 49C151 49.6 150.4 50.1 149.8 50.4C148.2 51.3 146.2 50.9 145.2 49.4C144.6 48.6 144.2 47.8 144 46.8C143.7 47.4 143.4 47.8 143.1 48.3C142.6 49.2 141.7 49.9 140.7 50.1C140.5 50.1 140.4 50 140.2 50C139.4 49.9 138.7 49.4 138.4 48.7C138.2 48.2 138 47.8 138 47.3C138 46.5 138 45.6 138.1 44.8C138.2 43.7 138.4 42.5 138.5 41.4C138.5 41.1 138.5 40.7 138.5 40.4C138.5 40.3 138.5 40.3 138.6 40.3C139.4 39.8 140.3 39.7 141.2 40C141.7 40.2 141.8 40.4 141.7 40.8C141.7 40.9 141.6 41 141.6 41.1C141.7 42.2 141.5 43.4 141 44.4C140.6 45.4 140.5 46.5 140.4 47.6C140.3 48 140.5 48.5 140.9 48.7C141.3 48.5 141.5 48.2 141.7 47.9C142.3 46.8 143 45.8 143.6 44.7V43.8L142.9 43.1H143.5C143.7 42.9 143.8 42.6 143.8 42.3C143.8 40.6 144 38.8 144.4 37.1C144.5 36.8 144.5 36.4 144.6 36C144.4 36 144.2 36 144 36C143.5 36.1 143 36.2 142.5 36.3C142.1 36.4 141.6 36.5 141.2 36.8C140.5 37.2 139.8 37.5 139 37.5C138.8 37.5 138.6 37.4 138.5 37.4L139 36.3C137.9 35.6 137.1 34.6 136.6 33.4C136.8 33.5 137 33.5 137.3 33.6C137.6 33.7 137.9 33.7 138.2 33.6C139.2 33.4 140.3 33.3 141.3 33.2C142.3 33 143.4 32.9 144.4 32.7C144.8 32.6 145.3 32.5 145.8 32.5C146 32 146.2 31.5 146.4 31C146.8 30.1 147.2 29.2 147.7 28.3L147.8 28Z" fill="#F26522"/>
<path d="M102.5 43.2999C103.3 39.5999 104.8 36.0999 106.8 32.8999C107.1 32.8999 107.4 32.9999 107.6 32.9999C107.8 32.9999 108.1 32.9999 108.5 32.9999L109.2 33.3999C109.2 33.8999 109.2 34.2999 109.1 34.7999C109 35.5999 108.9 36.3999 108.7 37.0999C108.4 38.2999 107.8 39.3999 106.9 40.1999C106.7 40.3999 106.5 40.6999 106.3 40.8999C105.7 41.2999 105.4 41.8999 105.4 42.4999C105.5 42.5999 105.7 42.5999 105.8 42.6999C106.1 42.6999 106.4 42.6999 106.7 42.5999C107.8 42.2999 108.8 41.9999 109.8 41.4999L110.4 39.6999C110.4 39.4999 110.3 39.0999 110.5 38.7999C111 38.2999 111.3 37.5999 112.1 37.4999C112.9 37.3999 113.4 37.3999 114.1 37.2999C114.7 37.2999 115.2 37.5999 115.5 38.1999C115.5 38.2999 115.6 38.3999 115.7 38.4999C116.2 39.0999 116.6 39.6999 116.8 40.3999V40.4999C117.3 41.0999 117.5 41.8999 117.5 42.5999L119.3 41.4999C119.2 40.6999 118.4 40.4999 118.2 39.7999C118.1 39.3999 118.1 38.9999 118.1 38.5999C118.2 38.1999 118.3 37.6999 118.5 37.2999C118.6 36.8999 118.8 36.5999 119 36.1999C119.3 35.6999 119.5 35.1999 119.8 34.7999C120.5 34.4999 121.2 34.1999 121.9 33.9999L122.4 34.6999C122.4 34.8999 122.4 35.1999 122.4 35.4999C122.4 36.1999 122.4 36.8999 122.4 37.5999C122.4 37.9999 122.3 38.2999 122.1 38.6999C121.8 39.2999 121.6 39.8999 121.4 40.3999C121.4 40.6999 121.7 40.8999 122 40.9999C122.5 41.1999 123 41.2999 123.6 41.4999C123.9 41.5999 124.2 41.7999 124.5 41.8999C124.7 42.0999 124.9 42.2999 124.9 42.5999C125 43.0999 125 43.5999 125 44.1999C125 44.6999 125 45.1999 125.1 45.6999C125.2 45.9999 125.2 46.1999 125.1 46.4999L125.9 48.0999C126.7 46.6999 127.3 45.2999 127.9 43.9999C128.5 42.6999 129.2 41.3999 129.9 39.9999L130.4 40.7999C130.3 41.4999 130.2 42.1999 130.1 42.8999C129.9 43.7999 129.6 44.5999 129.3 45.3999C129.1 46.0999 128.7 46.6999 128.4 47.2999C128.2 47.6999 127.9 48.0999 127.6 48.3999C127.2 48.7999 126.7 49.0999 126.2 49.0999C125.8 49.0999 125.3 49.0999 124.9 49.0999C124.1 48.9999 123.4 48.3999 123 47.6999C122.7 46.8999 122.5 45.9999 122.4 45.1999C122.2 44.3999 122.2 43.4999 122 42.5999C122 42.4999 122 42.3999 121.9 42.2999L120.9 41.8999C119.9 42.8999 118.8 43.6999 117.5 44.1999C116.9 45.8999 115.9 47.2999 114.4 48.3999C113.4 49.0999 112.1 49.0999 111 48.5999C110.8 48.4999 110.6 48.2999 110.5 48.0999C110.1 47.5999 109.9 46.8999 109.9 46.2999C109.8 45.1999 109.8 44.1999 109.8 43.0999C109.8 42.9999 109.8 42.8999 109.8 42.7999L107.4 43.7999C108.3 44.6999 108.8 45.9999 108.7 47.1999C108.8 48.2999 108.7 49.4999 108.6 50.5999C108.5 51.6999 108 52.6999 107.3 53.3999C106.8 53.8999 106.1 54.1999 105.4 54.1999C104.7 54.2999 104.1 54.0999 103.5 53.6999C103.2 53.2999 102.9 52.9999 102.6 52.4999C102.3 51.8999 102 51.2999 101.9 50.5999L102.1 50.4999C101.9 48.3999 102 46.1999 102.4 44.0999L102.2 43.7999L101.9 43.4999L102.5 43.2999ZM105.4 53.6999C105.6 53.4999 105.7 53.3999 105.8 53.1999C106 52.7999 106.2 52.2999 106.3 51.8999C106.6 50.7999 106.7 49.5999 106.7 48.4999C106.7 47.8999 106.5 47.3999 106.5 46.8999C106.4 46.0999 105.9 45.2999 105.2 44.7999C105.1 44.6999 105 44.6999 104.8 44.6999C104.3 46.2999 104.1 48.0999 104.1 49.7999C104.2 50.5999 104.2 51.2999 104.3 51.9999C104.3 52.6999 104.7 53.2999 105.4 53.6999ZM112.4 48.1999C113.3 47.8999 114.1 46.3999 114.3 44.9999C113.8 44.7999 113.4 44.5999 113 44.2999C112.6 43.9999 112.2 43.5999 111.8 43.1999C111.8 43.6999 111.8 44.0999 111.8 44.4999C111.8 44.8999 111.8 45.2999 111.8 45.6999C111.9 46.2999 111.9 46.7999 112.1 47.3999C112.1 47.6999 112.2 47.9999 112.4 48.1999ZM113.2 39.3999C112.8 40.3999 112.8 41.4999 113.3 42.3999C113.6 42.8999 114.1 43.2999 114.8 43.2999C114.8 41.7999 114.7 40.2999 113.2 39.3999Z" fill="#F26522"/>
<path d="M80.2 53.2999L79.4 54.1999H78.7C78.2 53.8999 77.9 53.3999 77.8 52.7999C77.6 51.5999 77.6 50.2999 77.8 49.0999C77.8 48.8999 77.8 48.5999 77.8 48.3999C77.6 48.4999 77.5 48.5999 77.3 48.6999C76.5 49.2999 75.7 49.6999 74.8 50.0999C73 50.7999 71 49.9999 70.2 48.2999C69.7 47.2999 69.3 46.0999 69.2 44.9999C69.1 43.9999 69 43.0999 69 42.2999C69 41.2999 69.2 40.2999 69.4 39.2999C69.8 37.7999 70.3 36.3999 71 35.0999C71.6 33.7999 72.4 32.6999 73.3 31.5999C73.6 31.2999 73.8 30.9999 74 30.6999C74.3 30.2999 74.7 29.9999 75.1 29.8999C75.7 30.0999 76.3 30.0999 76.9 30.0999C77.8 30.0999 78.6 30.2999 79.4 30.6999C80.1 30.9999 80.5 31.7999 80.2 32.4999C79.8 33.2999 79.4 34.0999 78.8 34.7999C78.5 33.6999 78 32.5999 77.1 31.7999C76.5 32.2999 76 32.9999 75.7 33.5999C74.9 34.9999 74.2 36.3999 73.5 37.7999C73.3 38.2999 73.1 38.7999 72.9 39.2999C72.2 41.1999 71.9 43.1999 72.1 45.1999C72.2 45.8999 72.4 46.4999 72.7 47.0999C72.8 47.2999 72.9 47.4999 73.1 47.6999C73.5 48.3999 74.3 48.5999 75 48.2999C75 48.2999 75 48.2999 75.1 48.2999C75.7 47.9999 76.3 47.5999 76.9 47.0999C77.5 46.5999 78 46.0999 78.5 45.5999C78.7 44.7999 78.8 43.9999 79 43.2999C79.1 42.9999 79.1 42.6999 79.2 42.2999C78.6 42.3999 78 42.3999 77.4 42.2999C76.8 42.0999 76.2 41.8999 75.6 41.5999C75.9 41.3999 76.3 41.1999 76.7 41.1999C77.1 41.1999 77.5 41.0999 77.9 40.8999C78.7 40.4999 79.6 40.0999 80.5 39.8999C81.6 39.5999 82.7 40.2999 82.9 41.3999C83 41.6999 83 41.9999 82.9 42.2999C82.7 43.4999 82.4 44.6999 82 45.8999C81.7 46.8999 81.4 47.8999 81.2 48.8999C81.1 49.5999 80.9 50.1999 80.7 50.8999C80.3 51.5999 80.2 52.3999 80.2 53.2999Z" fill="#F26522"/>
<path d="M91.7 42.5999C93 41.8999 94.3 41.0999 95.4 40.1999C95.4 40.3999 95.3 40.5999 95.3 40.7999C95.3 40.9999 95.3 41.1999 95.2 41.3999C94.5 43.0999 92.9 43.6999 91.4 44.4999C91 45.5999 90.5 46.5999 89.7 47.4999C89.3 47.8999 88.9 48.2999 88.4 48.5999C87.4 49.2999 86.2 49.3999 85.1 48.8999C84.7 48.7999 84.4 48.4999 84.3 48.1999C84.1 47.6999 83.9 47.0999 83.8 46.5999C83.7 45.6999 83.7 44.7999 83.7 43.8999C83.7 43.3999 83.7 42.9999 83.8 42.4999C84 41.5999 83.8 40.6999 84.4 39.8999C84.3 39.4999 84.2 39.0999 84.5 38.8999C85 38.3999 85.4 37.6999 86.1 37.5999C86.8 37.4999 87.4 37.4999 88.1 37.3999C88.7 37.3999 89.2 37.6999 89.4 38.2999C89.4 38.3999 89.5 38.4999 89.6 38.5999C89.9 38.9999 90.2 39.3999 90.4 39.7999C90.7 40.2999 91 40.8999 91.2 41.4999C91.5 41.8999 91.6 42.1999 91.7 42.5999ZM86.5 48.1999C87.3 47.8999 88.1 46.5999 88.4 44.9999C87.4 44.6999 86.5 44.0999 85.9 43.2999C85.8 43.6999 85.8 43.9999 85.8 44.3999C85.8 44.8999 85.8 45.4999 85.9 45.9999C86 46.5999 86.1 47.0999 86.2 47.6999C86.3 47.8999 86.4 47.9999 86.5 48.1999ZM87.3 39.3999C86.9 40.3999 87 41.4999 87.4 42.3999C87.7 42.9999 88.2 43.2999 88.8 43.2999C88.9 41.7999 88.8 40.3999 87.3 39.3999Z" fill="#F26522"/>
<path d="M157.8 43.7002C157.8 44.0002 157.8 44.3002 157.9 44.6002C157.9 44.9002 158 45.3002 158.1 45.6002C158.4 46.2002 158.2 46.8002 157.7 47.2002C156.8 48.1002 155.5 48.2002 154.5 47.4002C155.4 46.1002 156.2 44.7002 157.8 43.7002Z" fill="#F26522"/>
<path d="M22.07 33.15C20.67 33.15 19.35 32.89 18.11 32.37C16.87 31.83 15.78 31.08 14.84 30.12C13.9 29.14 13.16 27.99 12.62 26.67C12.1 25.33 11.84 23.84 11.84 22.2C11.84 20.72 12.11 19.34 12.65 18.06C13.19 16.78 13.94 15.65 14.9 14.67C15.86 13.69 16.98 12.93 18.26 12.39C19.56 11.83 20.96 11.55 22.46 11.55C24.42 11.55 26.15 11.97 27.65 12.81C29.15 13.65 30.26 14.78 30.98 16.2L27.32 18.96C26.84 18.02 26.14 17.28 25.22 16.74C24.32 16.2 23.34 15.93 22.28 15.93C21.48 15.93 20.74 16.1 20.06 16.44C19.4 16.76 18.82 17.22 18.32 17.82C17.84 18.4 17.47 19.08 17.21 19.86C16.95 20.64 16.82 21.48 16.82 22.38C16.82 23.3 16.96 24.15 17.24 24.93C17.52 25.71 17.91 26.39 18.41 26.97C18.91 27.53 19.5 27.97 20.18 28.29C20.88 28.61 21.65 28.77 22.49 28.77C23.51 28.77 24.48 28.52 25.4 28.02C26.34 27.5 27.2 26.74 27.98 25.74V30.6C26.28 32.3 24.31 33.15 22.07 33.15ZM27.68 25.44H23.54V21.87H31.76V33H27.68V25.44Z" fill="white"/>
</g>
<defs>
<clipPath id="clip0_181_61">
<rect width="168.6" height="54.6" fill="white"/>
</clipPath>
</defs>
</svg>
