<?xml version="1.0" encoding="utf-8"?>
<!-- Generator: Adobe Illustrator 22.0.1, SVG Export Plug-In . SVG Version: 6.00 Build 0)  -->
<svg version="1.1" id="Layer_1" xmlns="http://www.w3.org/2000/svg" xmlns:xlink="http://www.w3.org/1999/xlink" x="0px" y="0px"
	 viewBox="0 0 168.6 54.6" style="enable-background:new 0 0 168.6 54.6;" xml:space="preserve">
<style type="text/css">
	.st0{fill:#010101;stroke:#FFFFFF;stroke-width:7.000000e-02;stroke-miterlimit:10;}
	.st1{fill:#FFFFFF;stroke:#FFFFFF;stroke-width:7.000000e-02;stroke-miterlimit:10;}
	.st2{fill:#010101;}
	.st3{fill:none;stroke:#FFFFFF;stroke-width:7.000000e-02;stroke-miterlimit:10;}
	.st4{fill:none;stroke:#F9F9FA;stroke-width:7.000000e-02;stroke-miterlimit:10;}
	.st5{fill:#F26522;}
</style>
<title>mvision_goforit</title>
<rect x="0" y="-0.1" class="st0" width="44" height="44"/>
<polygon class="st1" points="11.1,32.1 11.1,12.4 16.6,12.4 22,24.1 27.3,12.4 32.8,12.4 32.8,32.1 28.5,32.1 28.4,19.4 23.7,30.1 
	20.4,30.2 15.6,19.3 15.6,32.1 "/>
<polygon class="st0" points="48.5,12.4 56.2,32.1 61.3,32.1 69,12.4 63.9,12.3 59,26.7 53.8,12.3 "/>
<rect x="71.1" y="12.3" class="st0" width="5.1" height="19.9"/>
<path class="st0" d="M78.4,29l2-3.9c0.7,0.7,1.6,1.2,2.4,1.7c1.6,0.8,3.3,1.2,5,1.3c0.4,0,0.8,0,1.1-0.2c0.4-0.1,0.7-0.4,0.9-0.7
	c0.2-0.4,0.3-0.9,0.1-1.3c-0.1-0.3-0.3-0.5-0.5-0.7c-0.1-0.1-0.2-0.1-0.3-0.2c-0.7-0.3-4-1.2-5.6-1.8c-0.9-0.3-1.8-0.8-2.5-1.4
	c-0.7-0.6-1.2-1.4-1.5-2.3c-0.3-1.2-0.2-2.5,0.3-3.6c0.5-1,1.2-1.8,2.1-2.5c4.6-3.4,11.4-0.1,11.7,0.1l1.4,0.7l-1.9,3.9L92,17.4
	l-1.1-0.5l-1-0.3c-0.4-0.1-0.7-0.2-0.9-0.3c-0.4-0.1-0.7-0.2-0.8-0.2l-0.5-0.1c-0.3,0-0.5,0-0.6,0c-0.3,0-0.6,0-0.9,0
	c-0.3,0-0.6,0.2-0.9,0.4c-0.2,0.2-0.3,0.4-0.4,0.6c-0.2,0.5-0.1,1,0.3,1.3c0.2,0.2,0.4,0.4,0.6,0.5c0.3,0.2,0.6,0.3,0.9,0.5
	c0.3,0.1,0.6,0.2,0.9,0.3c0.6,0.2,1.1,0.3,1.7,0.5s1.2,0.4,1.9,0.7c0.5,0.2,0.9,0.4,1.4,0.6c0.5,0.3,1,0.7,1.4,1.1
	c0.7,0.8,1.1,1.8,1.2,2.8c0.1,1.2-0.1,2.4-0.7,3.4c-0.6,1-1.5,1.8-2.5,2.3c-1.1,0.6-2.3,0.9-3.6,1c-1.9,0.2-3.8-0.1-5.7-0.7
	C81.3,30.9,79.8,30,78.4,29z"/>
<path class="st0" d="M98.3,12.3h5v19.9h-5V12.3z"/>
<path class="st2" d="M116.9,12.3c5.9,0,10.7,4.5,10.7,10s-4.8,10-10.7,10s-10.7-4.4-10.7-9.9S110.9,12.3,116.9,12.3z M122.2,22.2
	c0.2-3-2-5.6-5-5.9c-3.4-0.4-6,2.5-6.1,5.8s2.9,6.2,6.1,5.8C120.1,27.6,122.3,25.1,122.2,22.2L122.2,22.2z"/>
<ellipse class="st3" cx="116.9" cy="22.3" rx="10.7" ry="9.9"/>
<path class="st4" d="M122.2,22.2c0.1,2.9-2.1,5.4-5,5.8c-3.1,0.4-6.1-2.5-6.1-5.8s2.6-6.2,6.1-5.8C120.2,16.6,122.4,19.2,122.2,22.2
	z"/>
<polygon class="st2" points="148.3,12.3 148.3,32.1 143.9,32.1 134.7,19.9 134.7,32.1 130,32.1 130,12.3 134.5,12.3 143.6,24.4 
	143.6,12.3 "/>
<polygon class="st3" points="130,12.3 130,32.1 134.7,32.1 134.7,19.9 143.9,32.1 148.3,32.1 148.3,12.3 143.6,12.3 143.6,24.4 
	134.5,12.3 "/>
<path class="st5" d="M147.8,28c0.2,0,0.5,0.1,0.7,0.1l1.2,0.1c0.9,0.9,0.8,2,0.9,3.2c0.7,0,1.3-0.1,2-0.2c0.7-0.1,1.3-0.2,2-0.2
	s1.3-0.1,2-0.2c0.4-0.6,0.2-1.2,0.3-1.8c1.1-0.4,1.5-0.3,2,0.3l0.2,1.4c0.5,0,1,0,1.4,0c0.7,0,1.3,0.1,2,0.2s1.4,0.2,2,0.3
	c0.8,0.1,1.7,0.3,2.4,0.7c0.5,0.3,0.9,0.5,1.4,0.9c0.2,0.2,0.3,0.3,0.4,0.5c-0.4,0-0.6,0-0.9-0.1c-0.8-0.1-1.6-0.2-2.4-0.4
	c-0.9-0.2-1.8-0.3-2.7-0.3c-0.3,0-0.6-0.1-0.9-0.1c-0.4-0.1-0.9-0.1-1.3-0.1c-0.4,0-0.9,0.1-1.3,0.2c0,0.1,0,0.3,0,0.4
	c0,1.4-0.2,2.8-0.5,4.2c-0.1,0.8-0.2,1.6-0.4,2.4c-0.1,0.8-0.4,1.7-1,2.3c-0.2,0.2-0.4,0.4-0.5,0.7c-0.3,0-0.5-0.1-0.6-0.4
	c-0.2-0.4-0.4-0.8-0.5-1.2c-0.1-0.6-0.1-1.3-0.1-1.9c0-0.2,0-0.4,0-0.6c0.1-1.4,0.2-2.9,0.5-4.3c0.1-0.4,0.1-0.8,0.2-1.2
	c-0.3,0-0.6,0-0.9,0.1c-0.9,0.2-1.9,0.4-2.8,0.7c-1,0.2-1.9,0.5-2.7,1.1c-0.2,0.8-0.4,1.7-0.7,2.5s-0.5,1.8-0.8,2.7
	c-0.5,1.1-1.2,2.2-2.1,3l-0.3,0.2c-0.2,1.5,0,3,0.4,4.4c0.2,0.5,0.4,1,0.8,1.4c0.3,0.4,0.8,0.7,1.3,0.6c0.7-0.6,1.3-1.4,1.7-2.2
	c0.9-1.6,1.7-3.3,2.4-5c0.4-0.9,0.9-1.8,1.4-2.6c0.1-0.1,0.2-0.2,0.3-0.3c0.1,0.4,0.1,0.8,0.1,1.3c0,0.5-0.2,1-0.2,1.6
	c-0.3,1.8-0.9,3.5-1.8,5.1c-0.3,0.5-0.6,1-1,1.5c-0.4,0.6-1,1.1-1.6,1.4c-1.6,0.9-3.6,0.5-4.6-1c-0.6-0.8-1-1.6-1.2-2.6
	c-0.3,0.6-0.6,1-0.9,1.5c-0.5,0.9-1.4,1.6-2.4,1.8c-0.2,0-0.3-0.1-0.5-0.1c-0.8-0.1-1.5-0.6-1.8-1.3c-0.2-0.5-0.4-0.9-0.4-1.4
	c0-0.8,0-1.7,0.1-2.5c0.1-1.1,0.3-2.3,0.4-3.4c0-0.3,0-0.7,0-1c0-0.1,0-0.1,0.1-0.1c0.8-0.5,1.7-0.6,2.6-0.3
	c0.5,0.2,0.6,0.4,0.5,0.8c0,0.1-0.1,0.2-0.1,0.3c0.1,1.1-0.1,2.3-0.6,3.3c-0.4,1-0.5,2.1-0.6,3.2c-0.1,0.4,0.1,0.9,0.5,1.1
	c0.4-0.2,0.6-0.5,0.8-0.8c0.6-1.1,1.3-2.1,1.9-3.2v-0.9l-0.7-0.7h0.6c0.2-0.2,0.3-0.5,0.3-0.8c0-1.7,0.2-3.5,0.6-5.2
	c0.1-0.3,0.1-0.7,0.2-1.1c-0.2,0-0.4,0-0.6,0c-0.5,0.1-1,0.2-1.5,0.3c-0.4,0.1-0.9,0.2-1.3,0.5c-0.7,0.4-1.4,0.7-2.2,0.7
	c-0.2,0-0.4-0.1-0.5-0.1l0.5-1.1c-1.1-0.7-1.9-1.7-2.4-2.9c0.2,0.1,0.4,0.1,0.7,0.2c0.3,0.1,0.6,0.1,0.9,0c1-0.2,2.1-0.3,3.1-0.4
	c1-0.2,2.1-0.3,3.1-0.5c0.4-0.1,0.9-0.2,1.4-0.2c0.2-0.5,0.4-1,0.6-1.5c0.4-0.9,0.8-1.8,1.3-2.7L147.8,28z"/>
<path class="st5" d="M102.5,43.3c0.8-3.7,2.3-7.2,4.3-10.4c0.3,0,0.6,0.1,0.8,0.1s0.5,0,0.9,0l0.7,0.4c0,0.5,0,0.9-0.1,1.4
	c-0.1,0.8-0.2,1.6-0.4,2.3c-0.3,1.2-0.9,2.3-1.8,3.1c-0.2,0.2-0.4,0.5-0.6,0.7c-0.6,0.4-0.9,1-0.9,1.6c0.1,0.1,0.3,0.1,0.4,0.2
	c0.3,0,0.6,0,0.9-0.1c1.1-0.3,2.1-0.6,3.1-1.1l0.6-1.8c0-0.2-0.1-0.6,0.1-0.9c0.5-0.5,0.8-1.2,1.6-1.3s1.3-0.1,2-0.2
	c0.6,0,1.1,0.3,1.4,0.9c0,0.1,0.1,0.2,0.2,0.3c0.5,0.6,0.9,1.2,1.1,1.9v0.1c0.5,0.6,0.7,1.4,0.7,2.1l1.8-1.1c-0.1-0.8-0.9-1-1.1-1.7
	c-0.1-0.4-0.1-0.8-0.1-1.2c0.1-0.4,0.2-0.9,0.4-1.3c0.1-0.4,0.3-0.7,0.5-1.1c0.3-0.5,0.5-1,0.8-1.4c0.7-0.3,1.4-0.6,2.1-0.8l0.5,0.7
	c0,0.2,0,0.5,0,0.8c0,0.7,0,1.4,0,2.1c0,0.4-0.1,0.7-0.3,1.1c-0.3,0.6-0.5,1.2-0.7,1.7c0,0.3,0.3,0.5,0.6,0.6c0.5,0.2,1,0.3,1.6,0.5
	c0.3,0.1,0.6,0.3,0.9,0.4c0.2,0.2,0.4,0.4,0.4,0.7c0.1,0.5,0.1,1,0.1,1.6c0,0.5,0,1,0.1,1.5c0.1,0.3,0.1,0.5,0,0.8l0.8,1.6
	c0.8-1.4,1.4-2.8,2-4.1c0.6-1.3,1.3-2.6,2-4l0.5,0.8c-0.1,0.7-0.2,1.4-0.3,2.1c-0.2,0.9-0.5,1.7-0.8,2.5c-0.2,0.7-0.6,1.3-0.9,1.9
	c-0.2,0.4-0.5,0.8-0.8,1.1c-0.4,0.4-0.9,0.7-1.4,0.7c-0.4,0-0.9,0-1.3,0c-0.8-0.1-1.5-0.7-1.9-1.4c-0.3-0.8-0.5-1.7-0.6-2.5
	c-0.2-0.8-0.2-1.7-0.4-2.6c0-0.1,0-0.2-0.1-0.3l-1-0.4c-1,1-2.1,1.8-3.4,2.3c-0.6,1.7-1.6,3.1-3.1,4.2c-1,0.7-2.3,0.7-3.4,0.2
	c-0.2-0.1-0.4-0.3-0.5-0.5c-0.4-0.5-0.6-1.2-0.6-1.8c-0.1-1.1-0.1-2.1-0.1-3.2c0-0.1,0-0.2,0-0.3l-2.4,1c0.9,0.9,1.4,2.2,1.3,3.4
	c0.1,1.1,0,2.3-0.1,3.4c-0.1,1.1-0.6,2.1-1.3,2.8c-0.5,0.5-1.2,0.8-1.9,0.8c-0.7,0.1-1.3-0.1-1.9-0.5c-0.3-0.4-0.6-0.7-0.9-1.2
	c-0.3-0.6-0.6-1.2-0.7-1.9l0.2-0.1c-0.2-2.1-0.1-4.3,0.3-6.4l-0.2-0.3l-0.3-0.3L102.5,43.3z M105.4,53.7c0.2-0.2,0.3-0.3,0.4-0.5
	c0.2-0.4,0.4-0.9,0.5-1.3c0.3-1.1,0.4-2.3,0.4-3.4c0-0.6-0.2-1.1-0.2-1.6c-0.1-0.8-0.6-1.6-1.3-2.1c-0.1-0.1-0.2-0.1-0.4-0.1
	c-0.5,1.6-0.7,3.4-0.7,5.1c0.1,0.8,0.1,1.5,0.2,2.2C104.3,52.7,104.7,53.3,105.4,53.7L105.4,53.7z M112.4,48.2
	c0.9-0.3,1.7-1.8,1.9-3.2c-0.5-0.2-0.9-0.4-1.3-0.7c-0.4-0.3-0.8-0.7-1.2-1.1c0,0.5,0,0.9,0,1.3s0,0.8,0,1.2
	c0.1,0.6,0.1,1.1,0.3,1.7C112.1,47.7,112.2,48,112.4,48.2L112.4,48.2z M113.2,39.4c-0.4,1-0.4,2.1,0.1,3c0.3,0.5,0.8,0.9,1.5,0.9
	C114.8,41.8,114.7,40.3,113.2,39.4L113.2,39.4z"/>
<path class="st5" d="M80.2,53.3l-0.8,0.9h-0.7c-0.5-0.3-0.8-0.8-0.9-1.4c-0.2-1.2-0.2-2.5,0-3.7c0-0.2,0-0.5,0-0.7
	c-0.2,0.1-0.3,0.2-0.5,0.3c-0.8,0.6-1.6,1-2.5,1.4c-1.8,0.7-3.8-0.1-4.6-1.8c-0.5-1-0.9-2.2-1-3.3C69.1,44,69,43.1,69,42.3
	c0-1,0.2-2,0.4-3c0.4-1.5,0.9-2.9,1.6-4.2c0.6-1.3,1.4-2.4,2.3-3.5c0.3-0.3,0.5-0.6,0.7-0.9c0.3-0.4,0.7-0.7,1.1-0.8
	c0.6,0.2,1.2,0.2,1.8,0.2c0.9,0,1.7,0.2,2.5,0.6c0.7,0.3,1.1,1.1,0.8,1.8c0,0,0,0,0,0c-0.4,0.8-0.8,1.6-1.4,2.3
	c-0.3-1.1-0.8-2.2-1.7-3c-0.6,0.5-1.1,1.2-1.4,1.8c-0.8,1.4-1.5,2.8-2.2,4.2c-0.2,0.5-0.4,1-0.6,1.5c-0.7,1.9-1,3.9-0.8,5.9
	c0.1,0.7,0.3,1.3,0.6,1.9c0.1,0.2,0.2,0.4,0.4,0.6c0.4,0.7,1.2,0.9,1.9,0.6c0,0,0,0,0.1,0c0.6-0.3,1.2-0.7,1.8-1.2
	c0.6-0.5,1.1-1,1.6-1.5c0.2-0.8,0.3-1.6,0.5-2.3c0.1-0.3,0.1-0.6,0.2-1c-0.6,0.1-1.2,0.1-1.8,0c-0.6-0.2-1.2-0.4-1.8-0.7
	c0.3-0.2,0.7-0.4,1.1-0.4c0.4,0,0.8-0.1,1.2-0.3c0.8-0.4,1.7-0.8,2.6-1c1.1-0.3,2.2,0.4,2.4,1.5c0.1,0.3,0.1,0.6,0,0.9
	c-0.2,1.2-0.5,2.4-0.9,3.6c-0.3,1-0.6,2-0.8,3c-0.1,0.7-0.3,1.3-0.5,2C80.3,51.6,80.2,52.4,80.2,53.3z"/>
<path class="st5" d="M91.7,42.6c1.3-0.7,2.6-1.5,3.7-2.4c0,0.2-0.1,0.4-0.1,0.6s0,0.4-0.1,0.6c-0.7,1.7-2.3,2.3-3.8,3.1
	c-0.4,1.1-0.9,2.1-1.7,3c-0.4,0.4-0.8,0.8-1.3,1.1c-1,0.7-2.2,0.8-3.3,0.3c-0.4-0.1-0.7-0.4-0.8-0.7c-0.2-0.5-0.4-1.1-0.5-1.6
	c-0.1-0.9-0.1-1.8-0.1-2.7c0-0.5,0-0.9,0.1-1.4c0.2-0.9,0-1.8,0.6-2.6c-0.1-0.4-0.2-0.8,0.1-1c0.5-0.5,0.9-1.2,1.6-1.3
	s1.3-0.1,2-0.2c0.6,0,1.1,0.3,1.3,0.9c0,0.1,0.1,0.2,0.2,0.3c0.3,0.4,0.6,0.8,0.8,1.2c0.3,0.5,0.6,1.1,0.8,1.7
	C91.5,41.9,91.6,42.2,91.7,42.6z M86.5,48.2c0.8-0.3,1.6-1.6,1.9-3.2c-1-0.3-1.9-0.9-2.5-1.7c-0.1,0.4-0.1,0.7-0.1,1.1
	c0,0.5,0,1.1,0.1,1.6c0.1,0.6,0.2,1.1,0.3,1.7C86.3,47.9,86.4,48,86.5,48.2z M87.3,39.4c-0.4,1-0.3,2.1,0.1,3
	c0.3,0.6,0.8,0.9,1.4,0.9C88.9,41.8,88.8,40.4,87.3,39.4L87.3,39.4z"/>
<path class="st5" d="M157.8,43.7c0,0.3,0,0.6,0.1,0.9c0,0.3,0.1,0.7,0.2,1c0.3,0.6,0.1,1.2-0.4,1.6c-0.9,0.9-2.2,1-3.2,0.2
	C155.4,46.1,156.2,44.7,157.8,43.7z"/>
</svg>
