<?xml version="1.0" encoding="utf-8"?>
<!-- Generator: Adobe Illustrator 22.0.1, SVG Export Plug-In . SVG Version: 6.00 Build 0)  -->
<svg version="1.1" id="Layer_1" xmlns="http://www.w3.org/2000/svg" xmlns:xlink="http://www.w3.org/1999/xlink" x="0px" y="0px"
	 viewBox="0 0 168.9 54.1" style="enable-background:new 0 0 168.9 54.1;" xml:space="preserve">
<style type="text/css">
	.st0{fill:#FFFFFF;stroke:#FFFFFF;stroke-width:7.000000e-02;stroke-miterlimit:10;}
	.st1{fill:#010101;stroke:#FFFFFF;stroke-width:7.000000e-02;stroke-miterlimit:10;}
	.st2{fill:#FFFFFF;}
	.st3{fill:none;stroke:#FFFFFF;stroke-width:7.000000e-02;stroke-miterlimit:10;}
	.st4{fill:none;stroke:#F9F9FA;stroke-width:7.000000e-02;stroke-miterlimit:10;}
	.st5{fill:#F26522;}
</style>
<title>G-Vision_goforit</title>
<rect x="0.3" y="-0.1" class="st0" width="44" height="44"/>
<polygon class="st1" points="11.4,32.1 11.4,12.4 16.9,12.4 22.3,24.1 27.6,12.4 33.1,12.4 33.1,32.1 28.8,32.1 28.7,19.4 24,30.1 
	20.7,30.2 15.9,19.3 15.9,32.1 "/>
<polygon class="st0" points="48.9,12.4 56.5,32.1 61.6,32.1 69.3,12.4 64.2,12.3 59.3,26.7 54.2,12.3 "/>
<rect x="71.4" y="12.3" class="st0" width="5.1" height="19.9"/>
<path class="st0" d="M78.7,29l2-3.9c0.7,0.7,1.6,1.2,2.4,1.7c1.6,0.8,3.3,1.2,5,1.3c0.4,0,0.8,0,1.1-0.2c0.4-0.1,0.7-0.4,0.9-0.7
	c0.2-0.4,0.3-0.9,0.1-1.3c-0.1-0.3-0.3-0.5-0.5-0.7c-0.1-0.1-0.2-0.1-0.3-0.2c-0.7-0.3-4-1.2-5.6-1.8c-0.9-0.3-1.8-0.8-2.5-1.4
	c-0.7-0.6-1.2-1.4-1.5-2.3c-0.3-1.2-0.2-2.5,0.3-3.6c0.5-1,1.2-1.8,2.1-2.5c4.6-3.4,11.4-0.1,11.7,0.1l1.4,0.7l-1.9,3.9L92,17.4
	l-1.1-0.5l-1-0.3c-0.4-0.1-0.7-0.2-0.9-0.3c-0.4-0.1-0.7-0.2-0.8-0.2L87.7,16c-0.3,0-0.5,0-0.6,0c-0.3,0-0.6,0-0.9,0
	c-0.3,0-0.6,0.2-0.9,0.4c-0.2,0.2-0.3,0.4-0.4,0.6c-0.2,0.5-0.1,1,0.3,1.3c0.2,0.2,0.4,0.4,0.6,0.5c0.3,0.2,0.6,0.3,0.9,0.5
	c0.3,0.1,0.6,0.2,0.9,0.3c0.6,0.2,1.1,0.3,1.7,0.5s1.2,0.4,1.9,0.7c0.5,0.2,0.9,0.4,1.4,0.6c0.5,0.3,1,0.7,1.4,1.1
	c0.7,0.8,1.1,1.8,1.2,2.8c0.1,1.2-0.1,2.4-0.7,3.4c-0.6,1-1.5,1.8-2.5,2.3c-1.1,0.6-2.3,0.9-3.6,1c-1.9,0.2-3.8-0.1-5.7-0.7
	C81.6,30.8,80.1,30,78.7,29z"/>
<path class="st0" d="M98.7,12.3h5v19.9h-5V12.3z"/>
<path class="st2" d="M117.2,12.3c5.9,0,10.7,4.5,10.7,10s-4.8,10-10.7,10s-10.7-4.4-10.7-9.9S111.2,12.3,117.2,12.3z M122.5,22.2
	c0.2-3-2-5.6-5-5.9c-3.4-0.4-6,2.5-6.1,5.8s2.9,6.2,6.1,5.8C120.4,27.6,122.6,25.1,122.5,22.2L122.5,22.2z"/>
<ellipse class="st3" cx="117.2" cy="22.3" rx="10.7" ry="9.9"/>
<path class="st4" d="M122.5,22.2c0.1,2.9-2.1,5.4-5,5.8c-3.1,0.4-6.1-2.5-6.1-5.8s2.6-6.2,6.1-5.8C120.5,16.6,122.7,19.2,122.5,22.2
	z"/>
<polygon class="st2" points="148.6,12.3 148.6,32.1 144.2,32.1 135,19.9 135,32.1 130.3,32.1 130.3,12.3 134.9,12.3 143.9,24.4 
	143.9,12.3 "/>
<polygon class="st3" points="130.3,12.3 130.3,32.1 135,32.1 135,19.9 144.2,32.1 148.6,32.1 148.6,12.3 143.9,12.3 143.9,24.4 
	134.9,12.3 "/>
<path class="st5" d="M148.1,28c0.2,0,0.5,0.1,0.7,0.1l1.2,0.1c0.9,0.9,0.8,2,0.9,3.2c0.7,0,1.3-0.1,2-0.2s1.3-0.2,2-0.2
	s1.3-0.1,2-0.2c0.4-0.6,0.2-1.2,0.3-1.8c1.1-0.4,1.5-0.3,2,0.3l0.2,1.4c0.5,0,1,0,1.4,0c0.7,0,1.3,0.1,2,0.2s1.4,0.2,2,0.3
	c0.8,0.1,1.7,0.3,2.4,0.7c0.5,0.3,0.9,0.5,1.4,0.9c0.2,0.2,0.3,0.3,0.4,0.5c-0.4,0-0.6,0-0.9-0.1c-0.8-0.1-1.6-0.2-2.4-0.4
	c-0.9-0.2-1.8-0.3-2.7-0.3c-0.3,0-0.6-0.1-0.9-0.1c-0.4-0.1-0.9-0.1-1.3-0.1c-0.4,0-0.9,0.1-1.3,0.2c0,0.1,0,0.3,0,0.4
	c0,1.4-0.2,2.8-0.5,4.2c-0.1,0.8-0.2,1.6-0.4,2.4c-0.1,0.8-0.4,1.7-1,2.3c-0.2,0.2-0.4,0.4-0.5,0.7c-0.3,0-0.5-0.1-0.6-0.4
	c-0.2-0.4-0.4-0.8-0.5-1.2c-0.1-0.6-0.1-1.3-0.1-1.9c0-0.2,0-0.4,0-0.6c0.1-1.4,0.2-2.9,0.5-4.3c0.1-0.4,0.1-0.8,0.2-1.2
	c-0.3,0-0.6,0-0.9,0.1c-0.9,0.2-1.9,0.4-2.8,0.7c-1,0.2-1.9,0.5-2.7,1.1c-0.2,0.8-0.4,1.7-0.7,2.5s-0.5,1.8-0.8,2.7
	c-0.5,1.1-1.2,2.2-2.1,3l-0.3,0.2c-0.2,1.5,0,3,0.4,4.4c0.2,0.5,0.4,1,0.8,1.4c0.3,0.4,0.8,0.7,1.3,0.6c0.7-0.6,1.3-1.4,1.7-2.2
	c0.9-1.6,1.7-3.3,2.4-5c0.4-0.9,0.9-1.8,1.4-2.6c0.1-0.1,0.2-0.2,0.3-0.3c0.1,0.4,0.1,0.8,0.1,1.3s-0.2,1-0.2,1.6
	c-0.3,1.8-0.9,3.5-1.8,5.1c-0.3,0.5-0.6,1-1,1.5c-0.4,0.6-1,1.1-1.6,1.4c-1.6,0.9-3.6,0.5-4.6-1c-0.6-0.8-1-1.6-1.2-2.6
	c-0.3,0.6-0.6,1-0.9,1.5c-0.5,0.9-1.4,1.6-2.4,1.8c-0.2,0-0.3-0.1-0.5-0.1c-0.8-0.1-1.5-0.6-1.8-1.3c-0.2-0.5-0.4-0.9-0.4-1.4
	c0-0.8,0-1.7,0.1-2.5c0.1-1.1,0.3-2.3,0.4-3.4c0-0.3,0-0.7,0-1c0-0.1,0-0.1,0.1-0.1c0.8-0.5,1.7-0.6,2.6-0.3
	c0.5,0.2,0.6,0.4,0.5,0.8c0,0.1-0.1,0.2-0.1,0.3c0.1,1.1-0.1,2.3-0.6,3.3c-0.4,1-0.5,2.1-0.6,3.2c-0.1,0.4,0.1,0.9,0.5,1.1
	c0.4-0.2,0.6-0.5,0.8-0.8c0.6-1.1,1.3-2.1,1.9-3.2v-0.9l-0.7-0.7h0.6c0.2-0.2,0.3-0.5,0.3-0.8c0-1.7,0.2-3.5,0.6-5.2
	c0.1-0.3,0.1-0.7,0.2-1.1c-0.2,0-0.4,0-0.6,0c-0.5,0.1-1,0.2-1.5,0.3c-0.4,0.1-0.9,0.2-1.3,0.5c-0.7,0.4-1.4,0.7-2.2,0.7
	c-0.2,0-0.4-0.1-0.5-0.1l0.5-1.1c-1.1-0.7-1.9-1.7-2.4-2.9c0.2,0.1,0.4,0.1,0.7,0.2s0.6,0.1,0.9,0c1-0.2,2.1-0.3,3.1-0.4
	c1-0.2,2.1-0.3,3.1-0.5c0.4-0.1,0.9-0.2,1.4-0.2c0.2-0.5,0.4-1,0.6-1.5c0.4-0.9,0.8-1.8,1.3-2.7L148.1,28z"/>
<path class="st5" d="M102.8,43.3c0.8-3.7,2.3-7.2,4.3-10.4c0.3,0,0.6,0.1,0.8,0.1s0.5,0,0.9,0l0.7,0.4c0,0.5,0,0.9-0.1,1.4
	c-0.1,0.8-0.2,1.6-0.4,2.3c-0.3,1.2-0.9,2.3-1.8,3.1c-0.2,0.2-0.4,0.5-0.6,0.7c-0.6,0.4-0.9,1-0.9,1.6c0.1,0.1,0.3,0.1,0.4,0.2
	c0.3,0,0.6,0,0.9-0.1c1.1-0.3,2.1-0.6,3.1-1.1l0.6-1.8c0-0.2-0.1-0.6,0.1-0.9c0.5-0.5,0.8-1.2,1.6-1.3s1.3-0.1,2-0.2
	c0.6,0,1.1,0.3,1.4,0.9c0,0.1,0.1,0.2,0.2,0.3c0.5,0.6,0.9,1.2,1.1,1.9v0.1c0.5,0.6,0.7,1.4,0.7,2.1l1.8-1.1c-0.1-0.8-0.9-1-1.1-1.7
	c-0.1-0.4-0.1-0.8-0.1-1.2c0.1-0.4,0.2-0.9,0.4-1.3c0.1-0.4,0.3-0.7,0.5-1.1c0.3-0.5,0.5-1,0.8-1.4c0.7-0.3,1.4-0.6,2.1-0.8l0.5,0.7
	c0,0.2,0,0.5,0,0.8c0,0.7,0,1.4,0,2.1c0,0.4-0.1,0.7-0.3,1.1c-0.3,0.6-0.5,1.2-0.7,1.7c0,0.3,0.3,0.5,0.6,0.6c0.5,0.2,1,0.3,1.6,0.5
	c0.3,0.1,0.6,0.3,0.9,0.4c0.2,0.2,0.4,0.4,0.4,0.7c0.1,0.5,0.1,1,0.1,1.6c0,0.5,0,1,0.1,1.5c0.1,0.3,0.1,0.5,0,0.8l0.8,1.6
	c0.8-1.4,1.4-2.8,2-4.1s1.3-2.6,2-4l0.5,0.8c-0.1,0.7-0.2,1.4-0.3,2.1c-0.2,0.9-0.5,1.7-0.8,2.5c-0.2,0.7-0.6,1.3-0.9,1.9
	c-0.2,0.4-0.5,0.8-0.8,1.1c-0.4,0.4-0.9,0.7-1.4,0.7c-0.4,0-0.9,0-1.3,0c-0.8-0.1-1.5-0.7-1.9-1.4c-0.3-0.8-0.5-1.7-0.6-2.5
	c-0.2-0.8-0.2-1.7-0.4-2.6c0-0.1,0-0.2-0.1-0.3l-1-0.4c-1,1-2.1,1.8-3.4,2.3c-0.6,1.7-1.6,3.1-3.1,4.2c-1,0.7-2.3,0.7-3.4,0.2
	c-0.2-0.1-0.4-0.3-0.5-0.5c-0.4-0.5-0.6-1.2-0.6-1.8c-0.1-1.1-0.1-2.1-0.1-3.2c0-0.1,0-0.2,0-0.3l-2.4,1c0.9,0.9,1.4,2.2,1.3,3.4
	c0.1,1.1,0,2.3-0.1,3.4s-0.6,2.1-1.3,2.8c-0.5,0.5-1.2,0.8-1.9,0.8c-0.7,0.1-1.3-0.1-1.9-0.5c-0.3-0.4-0.6-0.7-0.9-1.2
	c-0.3-0.6-0.6-1.2-0.7-1.9l0.2-0.1c-0.2-2.1-0.1-4.3,0.3-6.4l-0.2-0.3l-0.3-0.3L102.8,43.3z M105.7,53.7c0.2-0.2,0.3-0.3,0.4-0.5
	c0.2-0.4,0.4-0.9,0.5-1.3c0.3-1.1,0.4-2.3,0.4-3.4c0-0.6-0.2-1.1-0.2-1.6c-0.1-0.8-0.6-1.6-1.3-2.1c-0.1-0.1-0.2-0.1-0.4-0.1
	c-0.5,1.6-0.7,3.4-0.7,5.1c0.1,0.8,0.1,1.5,0.2,2.2C104.6,52.7,105,53.3,105.7,53.7L105.7,53.7z M112.7,48.2
	c0.9-0.3,1.7-1.8,1.9-3.2c-0.5-0.2-0.9-0.4-1.3-0.7c-0.4-0.3-0.8-0.7-1.2-1.1c0,0.5,0,0.9,0,1.3s0,0.8,0,1.2
	c0.1,0.6,0.1,1.1,0.3,1.7C112.4,47.7,112.5,48,112.7,48.2L112.7,48.2z M113.5,39.4c-0.4,1-0.4,2.1,0.1,3c0.3,0.5,0.8,0.9,1.5,0.9
	C115.1,41.7,115,40.3,113.5,39.4L113.5,39.4z"/>
<path class="st5" d="M80.5,53.3l-0.8,0.9H79c-0.5-0.3-0.8-0.8-0.9-1.4c-0.2-1.2-0.2-2.5,0-3.7c0-0.2,0-0.5,0-0.7
	c-0.2,0.1-0.3,0.2-0.5,0.3c-0.8,0.6-1.6,1-2.5,1.4c-1.8,0.7-3.8-0.1-4.6-1.8c-0.5-1-0.9-2.2-1-3.3c-0.1-0.9-0.2-1.8-0.2-2.7
	c0-1,0.2-2,0.4-3c0.4-1.5,0.9-2.9,1.6-4.2c0.6-1.3,1.4-2.4,2.3-3.5c0.3-0.3,0.5-0.6,0.7-0.9c0.3-0.4,0.7-0.7,1.1-0.8
	c0.6,0.2,1.2,0.2,1.8,0.2c0.9,0,1.7,0.2,2.5,0.6c0.7,0.3,1.1,1.1,0.8,1.8l0,0c-0.4,0.8-0.8,1.6-1.4,2.3c-0.3-1.1-0.8-2.2-1.7-3
	c-0.6,0.5-1.1,1.2-1.4,1.8c-0.8,1.4-1.5,2.8-2.2,4.2c-0.2,0.5-0.4,1-0.6,1.5c-0.7,1.9-1,3.9-0.8,5.9c0.1,0.7,0.3,1.3,0.6,1.9
	c0.1,0.2,0.2,0.4,0.4,0.6c0.4,0.7,1.2,0.9,1.9,0.6c0,0,0,0,0.1,0c0.6-0.3,1.2-0.7,1.8-1.2c0.6-0.5,1.1-1,1.6-1.5
	c0.2-0.8,0.3-1.6,0.5-2.3c0.1-0.3,0.1-0.6,0.2-1c-0.6,0.1-1.2,0.1-1.8,0c-0.6-0.2-1.2-0.4-1.8-0.7c0.3-0.2,0.7-0.4,1.1-0.4
	s0.8-0.1,1.2-0.3c0.8-0.4,1.7-0.8,2.6-1c1.1-0.3,2.2,0.4,2.4,1.5c0.1,0.3,0.1,0.6,0,0.9c-0.2,1.2-0.5,2.4-0.9,3.6
	c-0.3,1-0.6,2-0.8,3c-0.1,0.7-0.3,1.3-0.5,2C80.6,51.6,80.5,52.4,80.5,53.3z"/>
<path class="st5" d="M92,42.6c1.3-0.7,2.6-1.5,3.7-2.4c0,0.2-0.1,0.4-0.1,0.6s0,0.4-0.1,0.6c-0.7,1.7-2.3,2.3-3.8,3.1
	c-0.4,1.1-0.9,2.1-1.7,3c-0.4,0.4-0.8,0.8-1.3,1.1c-1,0.7-2.2,0.8-3.3,0.3c-0.4-0.1-0.7-0.4-0.8-0.7c-0.2-0.5-0.4-1.1-0.5-1.6
	C84,45.7,84,44.8,84,43.9c0-0.5,0-0.9,0.1-1.4c0.2-0.9,0-1.8,0.6-2.6c-0.1-0.4-0.2-0.8,0.1-1c0.5-0.5,0.9-1.2,1.6-1.3s1.3-0.1,2-0.2
	c0.6,0,1.1,0.3,1.3,0.9c0,0.1,0.1,0.2,0.2,0.3c0.3,0.4,0.6,0.8,0.8,1.2c0.3,0.5,0.6,1.1,0.8,1.7C91.8,41.9,91.9,42.2,92,42.6z
	 M86.8,48.2c0.8-0.3,1.6-1.6,1.9-3.2c-1-0.3-1.9-0.9-2.5-1.7c-0.1,0.4-0.1,0.7-0.1,1.1c0,0.5,0,1.1,0.1,1.6c0.1,0.6,0.2,1.1,0.3,1.7
	C86.6,47.8,86.7,48,86.8,48.2z M87.6,39.4c-0.4,1-0.3,2.1,0.1,3c0.3,0.6,0.8,0.9,1.4,0.9C89.2,41.8,89.1,40.4,87.6,39.4L87.6,39.4z"
	/>
<path class="st5" d="M158.1,43.7c0,0.3,0,0.6,0.1,0.9c0,0.3,0.1,0.7,0.2,1c0.3,0.6,0.1,1.2-0.4,1.6c-0.9,0.9-2.2,1-3.2,0.2
	C155.7,46.1,156.5,44.6,158.1,43.7z"/>
</svg>
