<svg width="169" height="55" viewBox="0 0 169 55" fill="none" xmlns="http://www.w3.org/2000/svg">
<g clip-path="url(#clip0_189_79)">
<path d="M44.3 -0.100098H0.300003V43.8999H44.3V-0.100098Z" fill="white" stroke="white" stroke-width="0.07" stroke-miterlimit="10"/>
<path d="M22.07 33.15C20.67 33.15 19.35 32.89 18.11 32.37C16.87 31.83 15.78 31.08 14.84 30.12C13.9 29.14 13.16 27.99 12.62 26.67C12.1 25.33 11.84 23.84 11.84 22.2C11.84 20.72 12.11 19.34 12.65 18.06C13.19 16.78 13.94 15.65 14.9 14.67C15.86 13.69 16.98 12.93 18.26 12.39C19.56 11.83 20.96 11.55 22.46 11.55C24.42 11.55 26.15 11.97 27.65 12.81C29.15 13.65 30.26 14.78 30.98 16.2L27.32 18.96C26.84 18.02 26.14 17.28 25.22 16.74C24.32 16.2 23.34 15.93 22.28 15.93C21.48 15.93 20.74 16.1 20.06 16.44C19.4 16.76 18.82 17.22 18.32 17.82C17.84 18.4 17.47 19.08 17.21 19.86C16.95 20.64 16.82 21.48 16.82 22.38C16.82 23.3 16.96 24.15 17.24 24.93C17.52 25.71 17.91 26.39 18.41 26.97C18.91 27.53 19.5 27.97 20.18 28.29C20.88 28.61 21.65 28.77 22.49 28.77C23.51 28.77 24.48 28.52 25.4 28.02C26.34 27.5 27.2 26.74 27.98 25.74V30.6C26.28 32.3 24.31 33.15 22.07 33.15ZM27.68 25.44H23.54V21.87H31.76V33H27.68V25.44Z" fill="black"/>
<path d="M48.9 12.3998L56.5 32.0998H61.6L69.3 12.3998L64.2 12.2998L59.3 26.6998L54.2 12.2998L48.9 12.3998Z" fill="white" stroke="white" stroke-width="0.07" stroke-miterlimit="10"/>
<path d="M76.5 12.2998H71.4V32.1998H76.5V12.2998Z" fill="white" stroke="white" stroke-width="0.07" stroke-miterlimit="10"/>
<path d="M78.7 28.9999L80.7 25.0999C81.4 25.7999 82.3 26.2999 83.1 26.7999C84.7 27.5999 86.4 27.9999 88.1 28.0999C88.5 28.0999 88.9 28.0999 89.2 27.8999C89.6 27.7999 89.9 27.4999 90.1 27.1999C90.3 26.7999 90.4 26.2999 90.2 25.8999C90.1 25.5999 89.9 25.3999 89.7 25.1999C89.6 25.0999 89.5 25.0999 89.4 24.9999C88.7 24.6999 85.4 23.7999 83.8 23.1999C82.9 22.8999 82 22.3999 81.3 21.7999C80.6 21.1999 80.1 20.3999 79.8 19.4999C79.5 18.2999 79.6 16.9999 80.1 15.8999C80.6 14.8999 81.3 14.0999 82.2 13.3999C86.8 9.99985 93.6 13.2999 93.9 13.4999L95.3 14.1999L93.4 18.0999L92 17.3999L90.9 16.8999L89.9 16.5999C89.5 16.4999 89.2 16.3999 89 16.2999C88.6 16.1999 88.3 16.0999 88.2 16.0999L87.7 15.9999C87.4 15.9999 87.2 15.9999 87.1 15.9999C86.8 15.9999 86.5 15.9999 86.2 15.9999C85.9 15.9999 85.6 16.1999 85.3 16.3999C85.1 16.5999 85 16.7999 84.9 16.9999C84.7 17.4999 84.8 17.9999 85.2 18.2999C85.4 18.4999 85.6 18.6999 85.8 18.7999C86.1 18.9999 86.4 19.0999 86.7 19.2999C87 19.3999 87.3 19.4999 87.6 19.5999C88.2 19.7999 88.7 19.8999 89.3 20.0999C89.9 20.2999 90.5 20.4999 91.2 20.7999C91.7 20.9999 92.1 21.1999 92.6 21.3999C93.1 21.6999 93.6 22.0999 94 22.4999C94.7 23.2999 95.1 24.2999 95.2 25.2999C95.3 26.4999 95.1 27.6999 94.5 28.6999C93.9 29.6999 93 30.4999 92 30.9999C90.9 31.5999 89.7 31.8999 88.4 31.9999C86.5 32.1999 84.6 31.8999 82.7 31.2999C81.6 30.7999 80.1 29.9999 78.7 28.9999Z" fill="white" stroke="white" stroke-width="0.07" stroke-miterlimit="10"/>
<path d="M98.7 12.2998H103.7V32.1998H98.7V12.2998Z" fill="white" stroke="white" stroke-width="0.07" stroke-miterlimit="10"/>
<path d="M117.2 12.2998C123.1 12.2998 127.9 16.7998 127.9 22.2998C127.9 27.7998 123.1 32.2998 117.2 32.2998C111.3 32.2998 106.5 27.8998 106.5 22.3998C106.5 16.8998 111.2 12.2998 117.2 12.2998ZM122.5 22.1998C122.7 19.1998 120.5 16.5998 117.5 16.2998C114.1 15.8998 111.5 18.7998 111.4 22.0998C111.3 25.3998 114.3 28.2998 117.5 27.8998C120.4 27.5998 122.6 25.0998 122.5 22.1998Z" fill="white"/>
<path d="M117.2 32.1999C123.109 32.1999 127.9 27.7675 127.9 22.2999C127.9 16.8323 123.109 12.3999 117.2 12.3999C111.291 12.3999 106.5 16.8323 106.5 22.2999C106.5 27.7675 111.291 32.1999 117.2 32.1999Z" stroke="white" stroke-width="0.07" stroke-miterlimit="10"/>
<path d="M122.5 22.1998C122.6 25.0998 120.4 27.5998 117.5 27.9998C114.4 28.3998 111.4 25.4998 111.4 22.1998C111.4 18.8998 114 15.9998 117.5 16.3998C120.5 16.5998 122.7 19.1998 122.5 22.1998Z" stroke="#F9F9FA" stroke-width="0.07" stroke-miterlimit="10"/>
<path d="M148.6 12.2998V32.0998H144.2L135 19.8998V32.0998H130.3V12.2998H134.9L143.9 24.3998V12.2998H148.6Z" fill="white"/>
<path d="M130.3 12.2998V32.0998H135V19.8998L144.2 32.0998H148.6V12.2998H143.9V24.3998L134.9 12.2998H130.3Z" stroke="white" stroke-width="0.07" stroke-miterlimit="10"/>
<path d="M148.1 28C148.3 28 148.6 28.1 148.8 28.1L150 28.2C150.9 29.1 150.8 30.2 150.9 31.4C151.6 31.4 152.2 31.3 152.9 31.2C153.6 31.1 154.2 31 154.9 31C155.6 31 156.2 30.9 156.9 30.8C157.3 30.2 157.1 29.6 157.2 29C158.3 28.6 158.7 28.7 159.2 29.3L159.4 30.7C159.9 30.7 160.4 30.7 160.8 30.7C161.5 30.7 162.1 30.8 162.8 30.9C163.5 31 164.2 31.1 164.8 31.2C165.6 31.3 166.5 31.5 167.2 31.9C167.7 32.2 168.1 32.4 168.6 32.8C168.8 33 168.9 33.1 169 33.3C168.6 33.3 168.4 33.3 168.1 33.2C167.3 33.1 166.5 33 165.7 32.8C164.8 32.6 163.9 32.5 163 32.5C162.7 32.5 162.4 32.4 162.1 32.4C161.7 32.3 161.2 32.3 160.8 32.3C160.4 32.3 159.9 32.4 159.5 32.5C159.5 32.6 159.5 32.8 159.5 32.9C159.5 34.3 159.3 35.7 159 37.1C158.9 37.9 158.8 38.7 158.6 39.5C158.5 40.3 158.2 41.2 157.6 41.8C157.4 42 157.2 42.2 157.1 42.5C156.8 42.5 156.6 42.4 156.5 42.1C156.3 41.7 156.1 41.3 156 40.9C155.9 40.3 155.9 39.6 155.9 39C155.9 38.8 155.9 38.6 155.9 38.4C156 37 156.1 35.5 156.4 34.1C156.5 33.7 156.5 33.3 156.6 32.9C156.3 32.9 156 32.9 155.7 33C154.8 33.2 153.8 33.4 152.9 33.7C151.9 33.9 151 34.2 150.2 34.8C150 35.6 149.8 36.5 149.5 37.3C149.2 38.1 149 39.1 148.7 40C148.2 41.1 147.5 42.2 146.6 43L146.3 43.2C146.1 44.7 146.3 46.2 146.7 47.6C146.9 48.1 147.1 48.6 147.5 49C147.8 49.4 148.3 49.7 148.8 49.6C149.5 49 150.1 48.2 150.5 47.4C151.4 45.8 152.2 44.1 152.9 42.4C153.3 41.5 153.8 40.6 154.3 39.8C154.4 39.7 154.5 39.6 154.6 39.5C154.7 39.9 154.7 40.3 154.7 40.8C154.7 41.3 154.5 41.8 154.5 42.4C154.2 44.2 153.6 45.9 152.7 47.5C152.4 48 152.1 48.5 151.7 49C151.3 49.6 150.7 50.1 150.1 50.4C148.5 51.3 146.5 50.9 145.5 49.4C144.9 48.6 144.5 47.8 144.3 46.8C144 47.4 143.7 47.8 143.4 48.3C142.9 49.2 142 49.9 141 50.1C140.8 50.1 140.7 50 140.5 50C139.7 49.9 139 49.4 138.7 48.7C138.5 48.2 138.3 47.8 138.3 47.3C138.3 46.5 138.3 45.6 138.4 44.8C138.5 43.7 138.7 42.5 138.8 41.4C138.8 41.1 138.8 40.7 138.8 40.4C138.8 40.3 138.8 40.3 138.9 40.3C139.7 39.8 140.6 39.7 141.5 40C142 40.2 142.1 40.4 142 40.8C142 40.9 141.9 41 141.9 41.1C142 42.2 141.8 43.4 141.3 44.4C140.9 45.4 140.8 46.5 140.7 47.6C140.6 48 140.8 48.5 141.2 48.7C141.6 48.5 141.8 48.2 142 47.9C142.6 46.8 143.3 45.8 143.9 44.7V43.8L143.2 43.1H143.8C144 42.9 144.1 42.6 144.1 42.3C144.1 40.6 144.3 38.8 144.7 37.1C144.8 36.8 144.8 36.4 144.9 36C144.7 36 144.5 36 144.3 36C143.8 36.1 143.3 36.2 142.8 36.3C142.4 36.4 141.9 36.5 141.5 36.8C140.8 37.2 140.1 37.5 139.3 37.5C139.1 37.5 138.9 37.4 138.8 37.4L139.3 36.3C138.2 35.6 137.4 34.6 136.9 33.4C137.1 33.5 137.3 33.5 137.6 33.6C137.9 33.7 138.2 33.7 138.5 33.6C139.5 33.4 140.6 33.3 141.6 33.2C142.6 33 143.7 32.9 144.7 32.7C145.1 32.6 145.6 32.5 146.1 32.5C146.3 32 146.5 31.5 146.7 31C147.1 30.1 147.5 29.2 148 28.3L148.1 28Z" fill="#F26522"/>
<path d="M102.8 43.2999C103.6 39.5999 105.1 36.0999 107.1 32.8999C107.4 32.8999 107.7 32.9999 107.9 32.9999C108.1 32.9999 108.4 32.9999 108.8 32.9999L109.5 33.3999C109.5 33.8999 109.5 34.2999 109.4 34.7999C109.3 35.5999 109.2 36.3999 109 37.0999C108.7 38.2999 108.1 39.3999 107.2 40.1999C107 40.3999 106.8 40.6999 106.6 40.8999C106 41.2999 105.7 41.8999 105.7 42.4999C105.8 42.5999 106 42.5999 106.1 42.6999C106.4 42.6999 106.7 42.6999 107 42.5999C108.1 42.2999 109.1 41.9999 110.1 41.4999L110.7 39.6999C110.7 39.4999 110.6 39.0999 110.8 38.7999C111.3 38.2999 111.6 37.5999 112.4 37.4999C113.2 37.3999 113.7 37.3999 114.4 37.2999C115 37.2999 115.5 37.5999 115.8 38.1999C115.8 38.2999 115.9 38.3999 116 38.4999C116.5 39.0999 116.9 39.6999 117.1 40.3999V40.4999C117.6 41.0999 117.8 41.8999 117.8 42.5999L119.6 41.4999C119.5 40.6999 118.7 40.4999 118.5 39.7999C118.4 39.3999 118.4 38.9999 118.4 38.5999C118.5 38.1999 118.6 37.6999 118.8 37.2999C118.9 36.8999 119.1 36.5999 119.3 36.1999C119.6 35.6999 119.8 35.1999 120.1 34.7999C120.8 34.4999 121.5 34.1999 122.2 33.9999L122.7 34.6999C122.7 34.8999 122.7 35.1999 122.7 35.4999C122.7 36.1999 122.7 36.8999 122.7 37.5999C122.7 37.9999 122.6 38.2999 122.4 38.6999C122.1 39.2999 121.9 39.8999 121.7 40.3999C121.7 40.6999 122 40.8999 122.3 40.9999C122.8 41.1999 123.3 41.2999 123.9 41.4999C124.2 41.5999 124.5 41.7999 124.8 41.8999C125 42.0999 125.2 42.2999 125.2 42.5999C125.3 43.0999 125.3 43.5999 125.3 44.1999C125.3 44.6999 125.3 45.1999 125.4 45.6999C125.5 45.9999 125.5 46.1999 125.4 46.4999L126.2 48.0999C127 46.6999 127.6 45.2999 128.2 43.9999C128.8 42.6999 129.5 41.3999 130.2 39.9999L130.7 40.7999C130.6 41.4999 130.5 42.1999 130.4 42.8999C130.2 43.7999 129.9 44.5999 129.6 45.3999C129.4 46.0999 129 46.6999 128.7 47.2999C128.5 47.6999 128.2 48.0999 127.9 48.3999C127.5 48.7999 127 49.0999 126.5 49.0999C126.1 49.0999 125.6 49.0999 125.2 49.0999C124.4 48.9999 123.7 48.3999 123.3 47.6999C123 46.8999 122.8 45.9999 122.7 45.1999C122.5 44.3999 122.5 43.4999 122.3 42.5999C122.3 42.4999 122.3 42.3999 122.2 42.2999L121.2 41.8999C120.2 42.8999 119.1 43.6999 117.8 44.1999C117.2 45.8999 116.2 47.2999 114.7 48.3999C113.7 49.0999 112.4 49.0999 111.3 48.5999C111.1 48.4999 110.9 48.2999 110.8 48.0999C110.4 47.5999 110.2 46.8999 110.2 46.2999C110.1 45.1999 110.1 44.1999 110.1 43.0999C110.1 42.9999 110.1 42.8999 110.1 42.7999L107.7 43.7999C108.6 44.6999 109.1 45.9999 109 47.1999C109.1 48.2999 109 49.4999 108.9 50.5999C108.8 51.6999 108.3 52.6999 107.6 53.3999C107.1 53.8999 106.4 54.1999 105.7 54.1999C105 54.2999 104.4 54.0999 103.8 53.6999C103.5 53.2999 103.2 52.9999 102.9 52.4999C102.6 51.8999 102.3 51.2999 102.2 50.5999L102.4 50.4999C102.2 48.3999 102.3 46.1999 102.7 44.0999L102.5 43.7999L102.2 43.4999L102.8 43.2999ZM105.7 53.6999C105.9 53.4999 106 53.3999 106.1 53.1999C106.3 52.7999 106.5 52.2999 106.6 51.8999C106.9 50.7999 107 49.5999 107 48.4999C107 47.8999 106.8 47.3999 106.8 46.8999C106.7 46.0999 106.2 45.2999 105.5 44.7999C105.4 44.6999 105.3 44.6999 105.1 44.6999C104.6 46.2999 104.4 48.0999 104.4 49.7999C104.5 50.5999 104.5 51.2999 104.6 51.9999C104.6 52.6999 105 53.2999 105.7 53.6999ZM112.7 48.1999C113.6 47.8999 114.4 46.3999 114.6 44.9999C114.1 44.7999 113.7 44.5999 113.3 44.2999C112.9 43.9999 112.5 43.5999 112.1 43.1999C112.1 43.6999 112.1 44.0999 112.1 44.4999C112.1 44.8999 112.1 45.2999 112.1 45.6999C112.2 46.2999 112.2 46.7999 112.4 47.3999C112.4 47.6999 112.5 47.9999 112.7 48.1999ZM113.5 39.3999C113.1 40.3999 113.1 41.4999 113.6 42.3999C113.9 42.8999 114.4 43.2999 115.1 43.2999C115.1 41.6999 115 40.2999 113.5 39.3999Z" fill="#F26522"/>
<path d="M80.5 53.2999L79.7 54.1999H79C78.5 53.8999 78.2 53.3999 78.1 52.7999C77.9 51.5999 77.9 50.2999 78.1 49.0999C78.1 48.8999 78.1 48.5999 78.1 48.3999C77.9 48.4999 77.8 48.5999 77.6 48.6999C76.8 49.2999 76 49.6999 75.1 50.0999C73.3 50.7999 71.3 49.9999 70.5 48.2999C70 47.2999 69.6 46.0999 69.5 44.9999C69.4 44.0999 69.3 43.1999 69.3 42.2999C69.3 41.2999 69.5 40.2999 69.7 39.2999C70.1 37.7999 70.6 36.3999 71.3 35.0999C71.9 33.7999 72.7 32.6999 73.6 31.5999C73.9 31.2999 74.1 30.9999 74.3 30.6999C74.6 30.2999 75 29.9999 75.4 29.8999C76 30.0999 76.6 30.0999 77.2 30.0999C78.1 30.0999 78.9 30.2999 79.7 30.6999C80.4 30.9999 80.8 31.7999 80.5 32.4999C80.1 33.2999 79.7 34.0999 79.1 34.7999C78.8 33.6999 78.3 32.5999 77.4 31.7999C76.8 32.2999 76.3 32.9999 76 33.5999C75.2 34.9999 74.5 36.3999 73.8 37.7999C73.6 38.2999 73.4 38.7999 73.2 39.2999C72.5 41.1999 72.2 43.1999 72.4 45.1999C72.5 45.8999 72.7 46.4999 73 47.0999C73.1 47.2999 73.2 47.4999 73.4 47.6999C73.8 48.3999 74.6 48.5999 75.3 48.2999C75.3 48.2999 75.3 48.2999 75.4 48.2999C76 47.9999 76.6 47.5999 77.2 47.0999C77.8 46.5999 78.3 46.0999 78.8 45.5999C79 44.7999 79.1 43.9999 79.3 43.2999C79.4 42.9999 79.4 42.6999 79.5 42.2999C78.9 42.3999 78.3 42.3999 77.7 42.2999C77.1 42.0999 76.5 41.8999 75.9 41.5999C76.2 41.3999 76.6 41.1999 77 41.1999C77.4 41.1999 77.8 41.0999 78.2 40.8999C79 40.4999 79.9 40.0999 80.8 39.8999C81.9 39.5999 83 40.2999 83.2 41.3999C83.3 41.6999 83.3 41.9999 83.2 42.2999C83 43.4999 82.7 44.6999 82.3 45.8999C82 46.8999 81.7 47.8999 81.5 48.8999C81.4 49.5999 81.2 50.1999 81 50.8999C80.6 51.5999 80.5 52.3999 80.5 53.2999Z" fill="#F26522"/>
<path d="M92 42.5999C93.3 41.8999 94.6 41.0999 95.7 40.1999C95.7 40.3999 95.6 40.5999 95.6 40.7999C95.6 40.9999 95.6 41.1999 95.5 41.3999C94.8 43.0999 93.2 43.6999 91.7 44.4999C91.3 45.5999 90.8 46.5999 90 47.4999C89.6 47.8999 89.2 48.2999 88.7 48.5999C87.7 49.2999 86.5 49.3999 85.4 48.8999C85 48.7999 84.7 48.4999 84.6 48.1999C84.4 47.6999 84.2 47.0999 84.1 46.5999C84 45.6999 84 44.7999 84 43.8999C84 43.3999 84 42.9999 84.1 42.4999C84.3 41.5999 84.1 40.6999 84.7 39.8999C84.6 39.4999 84.5 39.0999 84.8 38.8999C85.3 38.3999 85.7 37.6999 86.4 37.5999C87.1 37.4999 87.7 37.4999 88.4 37.3999C89 37.3999 89.5 37.6999 89.7 38.2999C89.7 38.3999 89.8 38.4999 89.9 38.5999C90.2 38.9999 90.5 39.3999 90.7 39.7999C91 40.2999 91.3 40.8999 91.5 41.4999C91.8 41.8999 91.9 42.1999 92 42.5999ZM86.8 48.1999C87.6 47.8999 88.4 46.5999 88.7 44.9999C87.7 44.6999 86.8 44.0999 86.2 43.2999C86.1 43.6999 86.1 43.9999 86.1 44.3999C86.1 44.8999 86.1 45.4999 86.2 45.9999C86.3 46.5999 86.4 47.0999 86.5 47.6999C86.6 47.7999 86.7 47.9999 86.8 48.1999ZM87.6 39.3999C87.2 40.3999 87.3 41.4999 87.7 42.3999C88 42.9999 88.5 43.2999 89.1 43.2999C89.2 41.7999 89.1 40.3999 87.6 39.3999Z" fill="#F26522"/>
<path d="M158.1 43.7002C158.1 44.0002 158.1 44.3002 158.2 44.6002C158.2 44.9002 158.3 45.3002 158.4 45.6002C158.7 46.2002 158.5 46.8002 158 47.2002C157.1 48.1002 155.8 48.2002 154.8 47.4002C155.7 46.1002 156.5 44.6002 158.1 43.7002Z" fill="#F26522"/>
</g>
<defs>
<clipPath id="clip0_189_79">
<rect width="168.9" height="54.1" fill="white"/>
</clipPath>
</defs>
</svg>
